<svg width="17" height="17" viewBox="0 0 17 17" fill="none" xmlns="http://www.w3.org/2000/svg">
<rect x="0.0976562" y="0.467529" width="16.1553" height="16.1553" rx="3.40113" fill="url(#paint0_linear_119_405)"/>
<path d="M11.6003 9.30483H8.59746V12.3076C8.59746 12.4669 8.53419 12.6197 8.42156 12.7323C8.30893 12.8449 8.15618 12.9082 7.9969 12.9082C7.83762 12.9082 7.68487 12.8449 7.57224 12.7323C7.45961 12.6197 7.39634 12.4669 7.39634 12.3076V9.30483H4.39353C4.23425 9.30483 4.0815 9.24155 3.96887 9.12893C3.85624 9.0163 3.79297 8.86354 3.79297 8.70427C3.79297 8.54499 3.85624 8.39223 3.96887 8.2796C4.0815 8.16698 4.23425 8.1037 4.39353 8.1037H7.39634V5.1009C7.39634 4.94162 7.45961 4.78886 7.57224 4.67624C7.68487 4.56361 7.83762 4.50034 7.9969 4.50034C8.15618 4.50034 8.30893 4.56361 8.42156 4.67624C8.53419 4.78886 8.59746 4.94162 8.59746 5.1009V8.1037H11.6003C11.7595 8.1037 11.9123 8.16698 12.0249 8.2796C12.1376 8.39223 12.2008 8.54499 12.2008 8.70427C12.2008 8.86354 12.1376 9.0163 12.0249 9.12893C11.9123 9.24155 11.7595 9.30483 11.6003 9.30483Z" fill="white"/>
<defs>
<linearGradient id="paint0_linear_119_405" x1="8.03533" y1="0.378848" x2="8.03533" y2="20.0211" gradientUnits="userSpaceOnUse">
<stop stop-color="#EB7C49"/>
<stop offset="1" stop-color="#F04F52"/>
</linearGradient>
</defs>
</svg>
