<svg width="29" height="29" viewBox="0 0 29 29" fill="none" xmlns="http://www.w3.org/2000/svg">
    <circle cx="14.7689" cy="14.2387" r="13.8665" fill="#ECECEC"/>
    <path d="M10.8358 14.6225H18.7022V16.0998H19.4697V13.855H15.1528V12.3201H14.3853V13.855H10.0684V16.0998H10.8358V14.6225Z" fill="#C7C7C7"/>
    <path d="M12.8497 16.6371H8.05307C7.52325 16.6371 7.09375 17.0666 7.09375 17.5964V20.4743C7.09375 21.0042 7.52325 21.4337 8.05307 21.4337H12.8497C13.3795 21.4337 13.809 21.0042 13.809 20.4743V17.5964C13.809 17.0666 13.3795 16.6371 12.8497 16.6371Z" fill="#C7C7C7"/>
    <path d="M21.4844 16.6371H16.6878C16.158 16.6371 15.7285 17.0666 15.7285 17.5964V20.4743C15.7285 21.0042 16.158 21.4337 16.6878 21.4337H21.4844C22.0142 21.4337 22.4437 21.0042 22.4437 20.4743V17.5964C22.4437 17.0666 22.0142 16.6371 21.4844 16.6371Z" fill="#C7C7C7"/>
    <path d="M17.167 7.04387H12.3705C11.8406 7.04387 11.4111 7.47337 11.4111 8.00319V10.8811C11.4111 11.411 11.8406 11.8405 12.3705 11.8405H17.167C17.6969 11.8405 18.1264 11.411 18.1264 10.8811V8.00319C18.1264 7.47337 17.6969 7.04387 17.167 7.04387Z" fill="#C7C7C7"/>
    </svg>
    