<svg width="17" height="17" viewBox="0 0 17 17" fill="none" xmlns="http://www.w3.org/2000/svg">
<path d="M8.67453 15.8996C8.9568 15.8931 9.22768 15.787 9.43925 15.6C9.65083 15.413 9.78945 15.1573 9.83062 14.8779H7.47363C7.51597 15.1649 7.66108 15.4266 7.88198 15.6146C8.10289 15.8025 8.38453 15.9038 8.67453 15.8996Z" fill="black"/>
<path d="M15.3269 13.1436L15.1746 13.0091C14.7423 12.624 14.364 12.1824 14.0498 11.6962C13.7067 11.0252 13.501 10.2924 13.4449 9.54088V7.32728C13.4431 7.0584 13.4191 6.79012 13.3732 6.52518C12.6142 6.36917 11.9324 5.95566 11.4433 5.35466C10.9541 4.75365 10.6877 4.00208 10.6891 3.22719V2.94489C10.2213 2.71465 9.71861 2.56325 9.20143 2.4968V1.93219C9.20143 1.77354 9.13841 1.62138 9.02622 1.5092C8.91404 1.39701 8.76188 1.33398 8.60322 1.33398C8.44457 1.33398 8.29241 1.39701 8.18023 1.5092C8.06804 1.62138 8.00501 1.77354 8.00501 1.93219V2.5192C6.84701 2.68256 5.78719 3.25934 5.02124 4.14307C4.25528 5.0268 3.8349 6.15781 3.83772 7.32728V9.54088C3.78159 10.2924 3.57593 11.0252 3.23278 11.6962C2.92399 12.1812 2.55176 12.6228 2.12599 13.0091L1.97363 13.1436V14.4072H15.3269V13.1436Z" fill="#5D5D5D" fill-opacity="0.6"/>
<path d="M14.051 5.46827C15.2884 5.46827 16.2915 4.46517 16.2915 3.22779C16.2915 1.9904 15.2884 0.987305 14.051 0.987305C12.8136 0.987305 11.8105 1.9904 11.8105 3.22779C11.8105 4.46517 12.8136 5.46827 14.051 5.46827Z" fill="url(#paint0_linear_2265_2766)"/>
<defs>
<linearGradient id="paint0_linear_2265_2766" x1="14.0122" y1="0.962707" x2="14.0122" y2="6.41084" gradientUnits="userSpaceOnUse">
<stop stop-color="#EB7C49"/>
<stop offset="1" stop-color="#F04F52"/>
</linearGradient>
</defs>
</svg>
